HIERARCHY
ROOT Root
{
	OFFSET 0.00000 0.00000 0.00000
	CHANNELS 6 Xposition Yposition Zposition Zrotation Xrotation Yrotation
	JOINT Hips
	{
		OFFSET 0 0 0	
		CHANNELS 3 Zrotation Xrotation Yrotation
		JOINT Spine
		{
			OFFSET 0 4 0	
			CHANNELS 3 Zrotation Xrotation Yrotation
			JOINT Spine1
			{
				OFFSET 0 19.4 0	
				CHANNELS 3 Zrotation Xrotation Yrotation
				JOINT Spine2
				{
					OFFSET 0 16.6 0	
					CHANNELS 3 Zrotation Xrotation Yrotation
					JOINT LeftCollar
					{
						OFFSET 0 10 0	
						CHANNELS 3 Zrotation Xrotation Yrotation
						JOINT LeftArm
						{
							OFFSET 15.6 -2 3	
							CHANNELS 3 Zrotation Xrotation Yrotation
							JOINT LeftForeArm
							{
								OFFSET 3.5 -27 -1	
								CHANNELS 3 Zrotation Xrotation Yrotation
								JOINT LeftHand
								{
									OFFSET 1 -27 1	
									CHANNELS 3 Zrotation Xrotation Yrotation
									End Site
									{
										OFFSET 0 -15 0
									}
								}
							}
						}
					}
					JOINT RightCollar
					{
						OFFSET 0 10 0	
						CHANNELS 3 Zrotation Xrotation Yrotation
						JOINT RightArm
						{
							OFFSET -15.6 -2 3	
							CHANNELS 3 Zrotation Xrotation Yrotation
							JOINT RightForeArm
							{
								OFFSET -3.5 -27 -1	
								CHANNELS 3 Zrotation Xrotation Yrotation
								JOINT RightHand
								{
									OFFSET -1 -27 1	
									CHANNELS 3 Zrotation Xrotation Yrotation
									End Site
									{
										OFFSET 0 -15 0
									}
								}
							}
						}
					}
					JOINT Neck
					{
						OFFSET 0 10 0	
						CHANNELS 3 Zrotation Xrotation Yrotation
						JOINT Head
						{
							OFFSET 0 12.7 3	
							CHANNELS 3 Zrotation Xrotation Yrotation
							End Site
							{
								OFFSET 0 12.7 3
							}
						}
					}
				}
			}
		}
	}
	JOINT LeftHip
	{
		OFFSET 0 0 0	
		CHANNELS 3 Zrotation Xrotation Yrotation
		JOINT LeftUpLeg
		{
			OFFSET 8.8 -6 0	
			CHANNELS 3 Zrotation Xrotation Yrotation
			JOINT LeftLeg
			{
				OFFSET 0 -39 2	
				CHANNELS 3 Zrotation Xrotation Yrotation
				JOINT LeftFoot
				{
					OFFSET 0 -43 -2	
					CHANNELS 3 Zrotation Xrotation Yrotation
					JOINT LeftFootFront
					{
						OFFSET 0 -7 8.5	
						CHANNELS 3 Zrotation Xrotation Yrotation
						End Site
						{
							OFFSET 0 -0.5 9
						}
					}
				}
				JOINT LeftHeel
				{
					OFFSET 0 -43 -2	
					CHANNELS 3 Zrotation Xrotation Yrotation
					End Site
					{
						OFFSET 0 -7.5 -5
					}
				}
			}
		}
	}
	JOINT RightHip
	{
		OFFSET 0 0 0	
		CHANNELS 3 Zrotation Xrotation Yrotation
		JOINT RightUpLeg
		{
			OFFSET -8.8 -6 0	
			CHANNELS 3 Zrotation Xrotation Yrotation
			JOINT RightLeg
			{
				OFFSET 0 -39 2	
				CHANNELS 3 Zrotation Xrotation Yrotation
				JOINT RightFoot
				{
					OFFSET 0 -43 -2	
					CHANNELS 3 Zrotation Xrotation Yrotation
					JOINT RightFootFront
					{
						OFFSET 0 -7 8.5	
						CHANNELS 3 Zrotation Xrotation Yrotation
						End Site
						{
							OFFSET 0 -0.5 9
						}
					}
				}
				JOINT RightHeel
				{
					OFFSET 0 -43 -2	
					CHANNELS 3 Zrotation Xrotation Yrotation
					End Site
					{
						OFFSET 0 -7.5 -5
					}
				}
			}
		}
	}
}
MOTION
Frames: 8
Frame Time: 0.05
79.282 92.091 -34.676 -0 0 -0 -13.289 7.6747 72.475 1.3523 -9.6641 1.6804 1.3523 -9.6641 1.6804 1.1148 -8.1206 1.3937 -0 0 -0 -170.68 -70.512 150.31 -44.233 -67.188 -68.184 9.4014 -34.266 40.392 -0 0 -0 -140.63 -27.916 -18.975 -37.313 -55.809 -1.5078 107.74 -52.466 -14.801 -11.217 16.379 -38.849 -11.217 16.379 -38.849 -13.289 7.6747 72.475 0.99646 8.4936 21.691 -1.4716 4.7712 24.407 14.293 4.1361 73.975 1.9992 -1.3979 1.5133 -0 0 -0 -13.289 7.6747 72.475 11.27 0.034611 2.9271 1.6853 -15.282 -75.946 5.8996 -7.5058 17.683 1.4508 -5.4653 0.86404 -0 0 -0 
77.689 92.19 -36.308 -0 0 -0 -15.775 3.5739 91.786 0.49978 -9.8718 2.7151 0.49978 -9.8718 2.7151 0.38732 -8.2941 2.2709 -0 0 -0 -167.77 -65.345 148.02 -56.563 -68.893 -75.968 11.588 -29.677 37.122 -0 0 -0 -153.22 -27.801 -23.362 -30.557 -57.586 -10.041 99.91 -58.96 -27.787 -9.4814 16.716 -35.715 -9.4814 16.716 -35.715 -15.775 3.5739 91.786 1.2288 5.7526 21.761 -1.1997 3.3724 24.369 16.982 13.231 73.087 2.5675 -1.3823 0.42864 -0 0 -0 -15.775 3.5739 91.786 13.083 -2.1413 -0.94476 -0.60421 -16.311 -71.084 3.5559 -5.7091 12.746 0.49148 -7.3097 -2.2027 -0 0 -0 
75.95 92.352 -39.663 -0 0 -0 -15.789 -0.67577 109.5 -1.6032 -9.3812 4.7772 -1.6032 -9.3812 4.7772 -1.3977 -7.8718 4.0244 -0 0 -0 -161.64 -59.22 152.6 -78.071 -63.327 -94.609 17.805 -22.567 35.131 -0 0 -0 -150.7 -29.831 -27.842 -19.745 -61.646 -3.5734 75.321 -57.031 -53.232 -4.2017 16.286 -30.129 -4.2017 16.286 -30.129 -15.789 -0.67577 109.5 1.7458 3.784 20.758 -2.0642 0.99056 24.02 19.294 20.803 73.581 2.2147 0.096456 -0.025621 -0 0 -0 -15.789 -0.67577 109.5 14.237 -2.5937 0.3503 -3.8808 -18.126 -69.641 -0.12427 -2.9756 7.335 -0.19237 -8.5984 -1.3766 -0 0 -0 
74.032 92.583 -44.554 -0 0 -0 -14.71 -4.9112 127.51 -1.164 -10.507 5.8144 -1.164 -10.507 5.8143 -1.0485 -8.8187 4.8889 -0 0 -0 -164.92 -61.638 153.42 -86.991 -58.28 -107.66 19.529 -17.745 35.055 -0 0 -0 -151.59 -35.893 -36.105 -6.1346 -58.469 13.572 61.541 -53.289 -62.454 -2.784 16.407 -19.312 -2.784 16.407 -19.312 -14.71 -4.9112 127.51 1.8624 2.0742 17.868 -3.1037 -3.4171 28.659 21.689 25.337 71.353 1.3847 -0.40468 -0.67681 -0 0 -0 -14.71 -4.9112 127.51 14.617 -1.0218 2.165 -6.6813 -22.603 -76.418 -5.1282 0.077655 11.307 0.67914 -9.8436 0.14398 -0 0 -0 
72.2 92.86 -50.22 -0 0 -0 -12.867 -9.2728 146.6 -0.31946 -12.086 5.8839 -0.31946 -12.086 5.8839 -0.35246 -10.151 4.9341 -0 0 -0 -174.85 -61.236 144.84 -89.637 -60.194 -110.53 17.398 -13.723 36.609 -0 0 -0 -150.41 -40.007 -38.426 -5.6131 -54.815 18.624 49.67 -50.512 -68.135 -3.3196 15.95 -5.0498 -3.3196 15.95 -5.0498 -12.867 -9.2728 146.6 1.3808 -0.54702 13.029 -2.8039 -7.3858 27.879 19.085 28.299 77.027 2.1535 0.063283 -0.94071 -0 0 -0 -12.867 -9.2728 146.6 14.803 -1.7982 1.3873 -7.0918 -23.364 -79.45 -8.6465 -0.069703 12.993 1.3687 -7.7775 2.5161 -0 0 -0 
70.881 93.128 -55.692 -0 0 -0 -9.7472 -12.913 165.28 -0.086804 -12.994 6.3925 -0.086805 -12.994 6.3925 -0.17199 -10.915 5.3548 -0 0 -0 177.47 -56.978 133.8 -91.727 -67.67 -108.49 12.907 -14.447 40.481 -0 0 -0 -145.77 -36.858 -31.755 -10.573 -59.68 14.364 36.232 -39.915 -71.854 -3.2127 13.979 7.8013 -3.2127 13.979 7.8013 -9.7472 -12.913 165.28 0.61795 -4.4526 8.8621 -2.6207 -7.3674 25.478 15.14 27.201 83.733 0.98765 2.4823 1.0143 -0 0 -0 -9.7472 -12.913 165.28 14.975 -4.8147 -0.36828 -6.4542 -20.241 -77.275 -11.024 -0.56671 11.733 0.044575 -5.0539 -0.30239 -0 0 -0 
70.335 93.324 -60.322 -0 0 -0 -6.2113 -14.696 -178.45 -0.43937 -13.262 8.17 -0.43937 -13.262 8.17 -0.49761 -11.138 6.8481 -0 0 -0 172.86 -53.453 126.96 -98.503 -75.008 -112.08 9.3729 -20.436 48.671 -0 0 -0 -140.55 -31.552 -26.546 -17.95 -66.578 10.507 28.582 -29.251 -70.281 -1.754 12.953 14.454 -1.754 12.953 14.454 -6.2113 -14.696 -178.45 -0.56412 -8.7325 5.525 -3.9325 -3.8616 25.974 12.242 22.307 87.902 -0.9606 1.3387 1.3831 -0 0 -0 -6.2113 -14.696 -178.45 15.305 -7.1875 -1.2738 -6.2273 -16.146 -70.481 -13.503 0.12782 6.2248 -0.6435 -4.4613 -1.3524 -0 0 -0 
70.43 93.417 -63.997 -0 0 -0 -2.5321 -15.42 -164.08 -0.95127 -13.163 10.143 -0.95127 -13.163 10.143 -0.9565 -11.049 8.5084 -0 0 -0 167.32 -50.85 122.44 -123.81 -80.714 -137.35 7.7229 -26.796 57.496 -0 0 -0 -135.96 -28.684 -28.049 -18.638 -71.265 15.13 25.508 -25.386 -65.637 -1.5872 13.034 13.505 -1.5872 13.034 13.505 -2.5321 -15.42 -164.08 -1.8266 -14.015 1.0957 -6.5723 2.8543 28.109 11.052 14.759 91.266 -0.22168 0.46326 0.095156 -0 0 -0 -2.5321 -15.42 -164.08 15.098 -7.4129 -2.1183 -5.0556 -13.865 -64.865 -15.092 1.0947 3.2146 -0.85369 -9.776 0.57896 -0 0 -0 
